<?xml version="1.0" standalone="no"?>
<!DOCTYPE svg PUBLIC "-//W3C//DTD SVG 20010904//EN"
 "http://www.w3.org/TR/2001/REC-SVG-20010904/DTD/svg10.dtd">
<svg version="1.0" xmlns="http://www.w3.org/2000/svg"
 width="750.000000pt" height="472.000000pt" viewBox="0 0 750.000000 472.000000"
 preserveAspectRatio="xMidYMid meet">

<g transform="translate(0.000000,472.000000) scale(0.100000,-0.100000)"
fill="#000000" stroke="none">
<path d="M2070 4654 c-84 -22 -190 -78 -239 -126 -95 -93 -171 -246 -227 -457
-32 -122 -56 -153 -149 -190 -123 -49 -156 -96 -232 -330 -32 -101 -91 -231
-233 -520 -265 -540 -281 -593 -350 -1145 -52 -414 -64 -578 -57 -771 6 -175
24 -295 63 -423 41 -137 114 -192 302 -228 129 -25 201 -15 330 46 l67 32 -66
61 c-63 59 -67 65 -73 119 l-7 56 -42 -28 c-54 -36 -140 -64 -172 -56 -118 30
-125 275 -20 763 14 65 41 192 60 283 38 183 62 261 101 329 41 71 63 90 147
131 42 21 117 72 165 112 48 40 124 101 168 136 45 35 84 73 88 84 5 21 6 21
26 3 26 -24 25 -43 -5 -102 -18 -35 -25 -68 -27 -123 l-3 -75 28 -3 c57 -7
122 59 188 191 l39 77 104 0 c114 0 195 19 357 83 l86 34 49 -48 c27 -26 57
-59 67 -73 48 -70 88 -67 133 9 14 25 30 45 34 45 5 0 32 -21 60 -47 68 -63
73 -88 58 -308 -14 -213 -2 -369 46 -625 79 -422 126 -831 126 -1107 0 -171 0
-175 -31 -253 -17 -44 -29 -85 -26 -93 3 -8 20 -17 37 -21 46 -9 533 -7 547 2
28 18 72 256 93 497 13 156 13 626 0 780 -6 66 -17 165 -25 219 -8 55 -14 101
-12 103 5 4 221 -527 297 -733 91 -242 132 -372 171 -541 l33 -142 -37 -71
c-43 -82 -46 -106 -14 -117 34 -12 495 -7 543 6 58 16 69 47 67 186 -1 82 -13
173 -47 360 -25 138 -48 266 -52 285 -3 19 -50 201 -105 403 -54 202 -99 376
-99 386 0 9 11 28 25 41 l25 23 187 -24 c147 -19 233 -24 398 -24 208 1 212 1
370 39 290 68 390 95 491 130 54 19 99 34 100 33 0 -1 20 -76 43 -167 23 -91
75 -250 114 -355 l71 -190 4 -265 c7 -438 -20 -620 -109 -766 -28 -46 -49 -90
-46 -97 11 -28 410 -29 564 -1 89 17 110 95 79 304 -25 170 -27 204 -16 280
22 157 65 317 180 665 108 328 200 663 271 983 12 56 26 99 30 95 4 -4 14 -33
22 -63 74 -266 77 -526 13 -1010 -20 -146 -38 -285 -41 -310 -2 -25 -12 -102
-21 -171 -18 -144 -11 -194 33 -228 70 -56 92 -9 104 224 12 254 35 517 74
835 48 400 55 481 55 684 0 273 -37 453 -145 711 -173 413 -572 899 -899 1095
-295 177 -677 301 -1206 391 -206 36 -479 32 -830 -9 -307 -37 -438 -40 -752
-16 -277 21 -391 15 -523 -26 -72 -23 -127 -34 -195 -37 -117 -6 -172 7 -347
83 -209 91 -326 112 -453 78z m675 -319 c171 -14 229 -46 285 -155 55 -111
146 -443 157 -576 10 -127 -40 -203 -257 -382 -63 -53 -136 -115 -162 -139
-33 -30 -56 -43 -76 -43 -75 0 -238 122 -295 222 -14 24 -31 68 -37 100 -17
77 -8 236 18 313 l21 60 -7 -55 c-4 -30 -7 -109 -7 -176 l0 -121 42 -84 c72
-146 146 -209 246 -209 40 0 55 7 113 51 68 52 155 125 250 213 63 57 104 133
104 192 0 56 -73 422 -101 507 -26 81 -74 163 -109 189 -52 38 -175 60 -335
62 -175 1 -184 -2 -264 -89 -52 -58 -55 -51 -12 32 35 69 59 81 181 93 73 7
100 7 245 -5z m-1079 -840 c35 -53 -27 -106 -81 -71 -47 31 -23 96 35 96 21 0
35 -8 46 -25z"/>
</g>
</svg>
